#!OML:ASF Y:\EmotionMaleHayes\Project 1\Capture day 1\Session 1\Male1.ASF
:FULLY-SPECIFIED
:DEGREES
604
root 8.21041 15.9009 -10.3131 -190.059 36.9978 -197.084
lowerback 11.7092 3.28907 -11.1063
upperback 6.07768 3.99441 -4.38445
thorax -0.461056 2.17833 1.11834
lowerneck -15.9459 -9.94113 -6.09828
upperneck 22.8011 -14.9473 12.5457
head 11.5599 -5.59451 3.32424
rclavicle -2.32578e-014 3.28989e-014
rhumerus -27.5584 24.5226 -96.4877
rradius 88.544
rwrist -23.4597
rhand -25.3933 -31.2998
rfingers 7.12502
rthumb 1.13173 -61.2765
lclavicle -2.32578e-014 3.28989e-014
lhumerus -55.2156 -8.98498 87.7351
lradius 46.3502
lwrist 32.4806
lhand -35.5757 -24.685
lfingers 7.12502
lthumb -8.70038 5.11571
rfemur -20.8266 7.22231 14.518
rtibia 71.9309
rfoot -13.5304 12.3416
rtoes 14.1929
lfemur -8.67527 -0.269494 -12.0595
ltibia 25.9365
lfoot -13.6541 4.95265
ltoes -35.89
605
root 8.27365 15.9478 -10.4546 -190.579 38.0697 -197.257
lowerback 12.6508 3.23937 -10.468
upperback 6.16512 3.9101 -4.80689
thorax -0.806411 2.18949 0.283848
lowerneck -15.9599 -9.87775 -5.76468
upperneck 22.5306 -15.008 12.9049
head 11.4769 -5.56174 3.3876
rclavicle 5.96851e-014 -6.31141e-015
rhumerus -29.2617 23.8956 -98.0786
rradius 87.8573
rwrist -23.9553
rhand -25.4689 -31.4618
rfingers 7.12502
rthumb 1.05872 -61.4389
lclavicle 5.96851e-014 -6.31141e-015
lhumerus -53.0138 -10.3585 87.7169
lradius 46.0158
lwrist 31.5425
lhand -36.1614 -25.6458
lfingers 7.12502
lthumb -9.26559 4.13057
rfemur -21.6427 6.30602 14.724
rtibia 72.814
rfoot -14.7721 11.5801
rtoes 13.6304
lfemur -6.56559 0.551506 -12.0461
ltibia 24.561
lfoot -13.8291 4.98958
ltoes -35.464
606
root 8.34103 15.991 -10.591 -190.966 39.1398 -197.313
lowerback 13.4359 3.16855 -10.0273
upperback 6.28069 3.79242 -4.98473
thorax -1.06243 2.16211 -0.171337
lowerneck -16.1188 -9.66493 -5.47048
upperneck 22.4037 -14.7918 12.9784
head 11.42 -5.4338 3.39701
rclavicle 2.5314e-015 -2.29472e-014
rhumerus -30.9467 23.6042 -99.2076
rradius 86.6796
rwrist -23.84
rhand -25.139 -31.7623
rfingers 7.12502
rthumb 1.37731 -61.7376
lclavicle 2.5314e-015 -2.29472e-014
lhumerus -50.267 -11.0703 87.5803
lradius 45.3254
lwrist 30.5281
lhand -36.1975 -26.9665
lfingers 7.12502
lthumb -9.3004 2.8084
rfemur -22.7049 5.11883 15.1208
rtibia 73.3977
rfoot -15.5899 10.2995
rtoes 10.4876
lfemur -4.70339 1.17142 -11.8731
ltibia 23.3834
lfoot -14.2197 5.00504
ltoes -33.8255
607
root 8.40622 16.0319 -10.7267 -191.587 40.156 -198.009
lowerback 13.8721 3.10061 -10.3758
upperback 6.44177 3.64306 -5.05604
thorax -1.11856 2.09479 -0.0547392
lowerneck -15.7376 -9.59957 -5.95276
upperneck 21.6452 -14.6804 13.6584
head 11.1545 -5.4146 3.74028
rclavicle -1.86516e-014 -9.06023e-014
rhumerus -32.5041 23.6298 -99.7032
rradius 85.2106
rwrist -24.2499
rhand -25.314 -32.0848
rfingers 7.12502
rthumb 1.20833 -62.0611
lclavicle -1.86516e-014 -9.06023e-014
lhumerus -47.1824 -11.0759 87.3447
lradius 44.5977
lwrist 29.3725
lhand -35.8248 -27.2179
lfingers 7.12502
lthumb -8.94071 2.57267
rfemur -24.2313 3.66033 14.8963
rtibia 73.8941
rfoot -16.0485 8.90384
rtoes 8.01081
lfemur -3.14808 1.29302 -12.4515
ltibia 22.3789
lfoot -14.6992 5.63059
ltoes -32.98
608
root 8.47173 16.0722 -10.8623 -192.31 41.0109 -199.15
lowerback 14.2837 3.01879 -10.9978
upperback 6.43776 3.42089 -5.28541
thorax -1.329 1.99872 0.0513501
lowerneck -15.8771 -9.64349 -6.51409
upperneck 21.6695 -14.7359 14.1448
head 11.2922 -5.42627 3.99452
rclavicle 2.35808e-014 -3.90612e-014
rhumerus -34.1625 23.5628 -100.111
rradius 83.4195
rwrist -24.4917
rhand -25.8529 -32.5634
rfingers 7.12502
rthumb 0.68779 -62.542
lclavicle 2.35808e-014 -3.90612e-014
lhumerus -44.5966 -11.2095 86.8765
lradius 44.5317
lwrist 28.1509
lhand -35.4432 -26.7683
lfingers 7.12502
lthumb -8.57248 3.03766
rfemur -25.9507 2.09178 14.2812
rtibia 74.0207
rfoot -16.3276 7.69274
rtoes 8.56218
lfemur -1.8911 0.971445 -13.6217
ltibia 21.3969
lfoot -14.9577 6.8456
ltoes -33.6507
609
root 8.55249 16.1212 -10.9931 -193.273 41.4589 -200.355
lowerback 14.7353 2.83042 -11.8581
upperback 6.62847 3.06792 -5.47697
thorax -1.34039 1.83458 0.355294
lowerneck -16.367 -9.35949 -6.27329
upperneck 21.8811 -14.3478 13.8224
head 11.3692 -5.24466 3.89145
rclavicle 6.94131e-014 9.6833e-014
rhumerus -35.5653 23.404 -100.344
rradius 81.2537
rwrist -24.017
rhand -26.0352 -33.1492
rfingers 7.12502
rthumb 0.511775 -63.1284
lclavicle 6.94131e-014 9.6833e-014
lhumerus -41.9616 -11.3258 86.2637
lradius 44.7395
lwrist 26.9821
lhand -35.3367 -26.5715
lfingers 7.12502
lthumb -8.46975 3.23862
rfemur -27.105 0.347952 13.6709
rtibia 73.3866
rfoot -16.6451 6.48958
rtoes 8.46753
lfemur -0.454742 0.620165 -14.8769
ltibia 20.3471
lfoot -15.199 7.51537
ltoes -33.1931
610
root 8.65623 16.0511 -11.1185 -190.947 42.5605 -201.593
lowerback 10.9462 2.49988 -13.0966
upperback 6.15122 2.97637 -5.60921
thorax 0.166227 1.65652 1.08548
lowerneck -16.5873 -9.22935 -6.26412
upperneck 21.5109 -14.1735 13.9445
head 11.2638 -5.17295 3.94769
rclavicle 3.94712e-014 -7.12146e-014
rhumerus -36.8765 23.0006 -100.353
rradius 78.948
rwrist -23.8439
rhand -26.2983 -33.7676
rfingers 7.12502
rthumb 0.25762 -63.7472
lclavicle 3.94712e-014 -7.12146e-014
lhumerus -39.164 -11.282 85.6776
lradius 45.146
lwrist 26.3208
lhand -35.6336 -26.4534
lfingers 7.12502
lthumb -8.7562 3.34495
rfemur -32.9258 -1.26729 13.2631
rtibia 73.769
rfoot -17.2157 5.22585
rtoes 7.15479
lfemur -2.41971 0.929107 -15.7511
ltibia 19.4326
lfoot -15.9071 7.88378
ltoes -29.1451
611
root 8.73552 16.0686 -11.2417 -191.423 43.5503 -203.206
lowerback 10.5193 2.45233 -14.3848
upperback 5.99692 2.86358 -5.73937
thorax 0.23121 1.57674 1.66766
lowerneck -16.7589 -8.91043 -5.6685
upperneck 21.3242 -13.74 13.4182
head 11.0808 -5.00368 3.72146
rclavicle -3.52843e-015 4.89507e-015
rhumerus -38.2971 22.4488 -100.17
rradius 76.4826
rwrist -23.9094
rhand -26.4078 -34.4231
rfingers 7.12502
rthumb 0.151891 -64.4028
lclavicle -3.52843e-015 4.89507e-015
lhumerus -36.3859 -10.8323 85.1505
lradius 45.4163
lwrist 25.7023
lhand -35.794 -26.5918
lfingers 7.12502
lthumb -8.91106 3.20006
rfemur -35.7009 -2.75269 12.728
rtibia 73.4422
rfoot -17.819 4.35013
rtoes 6.67451
lfemur -1.72925 1.192 -17.032
ltibia 18.2963
lfoot -16.3222 8.41502
ltoes -26.9728
612
root 8.82491 16.237 -11.3582 -196.346 43.364 -204.684
lowerback 15.6707 2.90458 -15.5048
upperback 6.77567 2.62488 -5.78618
thorax -1.64965 1.62368 2.01836
lowerneck -16.913 -8.79878 -5.77728
upperneck 21.3263 -13.6272 13.7318
head 11.1369 -4.91641 3.86951
rclavicle -7.17178e-015 -6.35862e-014
rhumerus -39.7164 21.3378 -99.6549
rradius 74.0478
rwrist -24.1131
rhand -26.5152 -35.0537
rfingers 7.12502
rthumb 0.048167 -65.0335
lclavicle -7.17178e-015 -6.35862e-014
lhumerus -33.6031 -10.9115 84.7668
lradius 45.5878
lwrist 25.0389
lhand -35.8645 -26.7584
lfingers 7.12502
lthumb -8.9791 3.03055
rfemur -31.0692 -3.63996 12.0992
rtibia 69.9581
rfoot -18.1473 2.88904
rtoes 5.56062
lfemur 3.67438 1.1008 -18.3882
ltibia 16.8606
lfoot -15.9206 8.55199
ltoes -28.8713
613
root 8.9122 16.2543 -11.4902 -196.699 44.0317 -205.679
lowerback 15.6162 2.97876 -15.9237
upperback 6.6496 2.64414 -5.8514
thorax -1.76348 1.63492 2.16572
lowerneck -17.2329 -9.0674 -7.92696
upperneck 21.9251 -14.0831 16.2182
head 11.8993 -4.93484 5.0997
rclavicle 5.09013e-014 -2.63141e-014
rhumerus -41.3007 19.325 -99.1145
rradius 71.8475
rwrist -24.2194
rhand -26.6117 -35.9428
rfingers 7.12502
rthumb -0.045103 -65.9225
lclavicle 5.09013e-014 -2.63141e-014
lhumerus -30.9479 -11.6258 84.5044
lradius 46.0235
lwrist 24.7161
lhand -35.9123 -26.8437
lfingers 7.12502
lthumb -9.02516 2.94318
rfemur -32.6501 -4.65015 12.1043
rtibia 68.3044
rfoot -18.2207 1.56506
rtoes 5.96328
lfemur 4.56332 1.26938 -19.1924
ltibia 15.696
lfoot -15.7737 9.15831
ltoes -29.562
614
root 9.00227 16.2646 -11.6206 -196.904 44.6899 -206.391
lowerback 15.6438 2.9421 -16.297
upperback 6.54404 2.49387 -5.71386
thorax -1.88375 1.55187 2.53546
lowerneck -17.4622 -8.99041 -8.59179
upperneck 21.6748 -13.8394 16.4574
head 11.8877 -4.87184 5.33229
rclavicle -4.97707e-014 -6.9674e-014
rhumerus -42.7452 18.1704 -97.9738
rradius 69.9592
rwrist -25.0497
rhand -26.6669 -37.2877
rfingers 7.12502
rthumb -0.0983351 -67.2674
lclavicle -4.97707e-014 -6.9674e-014
lhumerus -28.4052 -11.8689 84.2223
lradius 46.5817
lwrist 24.3311
lhand -35.7455 -26.8804
lfingers 7.12502
lthumb -8.86424 2.91338
rfemur -34.2039 -5.56109 12.3536
rtibia 66.5825
rfoot -18.3358 0.42998
rtoes 6.9629
lfemur 5.37918 1.56842 -19.6719
ltibia 14.7331
lfoot -15.7447 9.39977
ltoes -29.3106
615
root 9.09008 16.2666 -11.7345 -197.037 45.5177 -207.035
lowerback 15.7413 2.89048 -16.7921
upperback 6.42666 2.28266 -5.48436
thorax -2.04657 1.43649 3.07799
lowerneck -17.7378 -8.63842 -6.96081
upperneck 21.1544 -13.1464 13.9076
head 11.2765 -4.78014 4.17978
rclavicle 4.11484e-014 -3.07122e-014
rhumerus -44.1718 17.6384 -96.6703
rradius 68.4919
rwrist -26.4239
rhand -27.4019 -38.8361
rfingers 7.12502
rthumb -0.808295 -68.8143
lclavicle 4.11484e-014 -3.07122e-014
lhumerus -25.9883 -12.015 83.7941
lradius 47.4552
lwrist 24.1623
lhand -35.5123 -26.6691
lfingers 7.12502
lthumb -8.63913 3.13414
rfemur -36.631 -6.63348 12.8708
rtibia 65.857
rfoot -18.9155 -0.605482
rtoes 5.6637
lfemur 6.05817 1.8734 -19.9353
ltibia 13.771
lfoot -15.3988 9.73259
ltoes -30.4836
616
root 9.18205 16.2593 -11.848 -197.41 46.2494 -208.044
lowerback 15.8476 2.89149 -17.3024
upperback 6.2493 2.14282 -5.50768
thorax -2.27666 1.37877 3.3401
lowerneck -17.5265 -8.5647 -6.67308
upperneck 20.3059 -12.9528 13.4643
head 10.8365 -4.78972 3.98519
rclavicle -4.13472e-014 7.7526e-014
rhumerus -45.7791 16.6221 -95.4845
rradius 67.3782
rwrist -27.9728
rhand -28.8185 -40.1406
rfingers 7.12502
rthumb -2.17641 -70.1092
lclavicle -4.13472e-014 7.7526e-014
lhumerus -23.7945 -12.9168 83.07
lradius 48.6815
lwrist 24.1954
lhand -35.0367 -26.4707
lfingers 7.12502
lthumb -8.18018 3.35099
rfemur -38.7809 -7.35705 13.0992
rtibia 64.6218
rfoot -19.4845 -1.88793
rtoes 4.23019
lfemur 6.75919 2.14031 -20.4982
ltibia 12.7432
lfoot -15.1524 10.0728
ltoes -31.4407
